<svg width="30" height="28" fill="none" xmlns="http://www.w3.org/2000/svg"><path d="M5.689 12.891a1.346 1.346 0 01-1.165-1.718 1.356 1.356 0 011.799-.88l8.892 3.615-9.526-1.017z" fill="#FCD043"/><path d="M16.779 4.167A1.26 1.26 0 0118.32 3.16c.658.166 1.007.863.746 1.491l-3.904 9.416 1.616-9.899z" fill="#FCD043"/><path d="M9.35 6.272c-.469-.612-.239-1.528.49-1.95.68-.395 1.517-.15 1.783.521l3.603 9.1-5.876-7.67zm13.844 1.795c.645-.487 1.537-.347 1.9.297.337.602.026 1.4-.663 1.7l-9.177 3.997 7.94-5.994zm1.66 7.075c.849.09 1.398.901 1.164 1.718a1.356 1.356 0 01-1.798.88l-8.892-3.615 9.526 1.017z" fill="#FCD043"/><path d="M13.764 23.865a1.26 1.26 0 01-1.543 1.008 1.094 1.094 0 01-.746-1.49l3.904-9.416-1.615 9.898zm7.508-2.146c.469.612.239 1.528-.49 1.95-.68.395-1.517.15-1.783-.521l-3.602-9.101 5.875 7.672zM7.43 19.92c-.646.486-1.538.346-1.9-.298-.337-.602-.026-1.4.662-1.7l9.177-3.997-7.94 5.994z" fill="#FCD043"/></svg>